<svg xmlns="http://www.w3.org/2000/svg" viewBox="0 0 1024 1024" width="1024" height="1024">
  <title>Terminal Talk — dots pill · lettered variant · 1024</title>
  <defs>
    <clipPath id="cp-top"><rect x="-100" y="-100" width="200" height="100"></rect></clipPath>
    <clipPath id="cp-bot"><rect x="-100" y="0" width="200" height="100"></rect></clipPath>
    <clipPath id="cp-lft"><rect x="-100" y="-100" width="100" height="200"></rect></clipPath>
    <clipPath id="cp-rgt"><rect x="0" y="-100" width="100" height="200"></rect></clipPath>
  </defs>
  <rect x="0" y="0" width="1024" height="1024" rx="224" ry="224" fill="#14161d"></rect>
  <rect x="0" y="0" width="1024" height="1024" rx="224" ry="224" fill="none" stroke="rgba(255,255,255,0.06)" stroke-width="2"></rect>
  <rect x="72" y="300" width="880" height="424" rx="80" ry="80" fill="#1a1d26" stroke="rgba(255,255,255,0.12)" stroke-width="3"></rect>

  <g font-family="&#39;Segoe UI&#39;, &#39;Inter&#39;, system-ui, sans-serif" font-weight="800" font-size="88" text-anchor="middle" dominant-baseline="central" fill="rgba(0,0,0,0.78)">
    
    <circle cx="196" cy="440" r="62" fill="#ff5e5e"></circle><text x="196" y="442">T</text>
    <circle cx="322" cy="440" r="62" fill="#ffa726"></circle><text x="322" y="442">E</text>
    <circle cx="448" cy="440" r="62" fill="#ffd93d"></circle><text x="448" y="442">R</text>
    <circle cx="574" cy="440" r="62" fill="#4ade80"></circle><text x="574" y="442">M</text>
    <circle cx="700" cy="440" r="62" fill="#60a5fa"></circle><text x="700" y="442">I</text>
    <circle cx="826" cy="440" r="62" fill="#c084fc"></circle><text x="826" y="442">N</text>

    
    <circle cx="196" cy="584" r="62" fill="#c97b50"></circle><text x="196" y="586">A</text>
    <circle cx="322" cy="584" r="62" fill="#e0e0e0"></circle><text x="322" y="586">L</text>

    <g transform="translate(448 584)">
      <circle cx="0" cy="0" r="62" fill="#ff5e5e" clip-path="url(#cp-top)"></circle>
      <circle cx="0" cy="0" r="62" fill="#4ade80" clip-path="url(#cp-bot)"></circle>
      <text x="0" y="2">T</text>
    </g>
    <g transform="translate(574 584)">
      <circle cx="0" cy="0" r="62" fill="#ffa726" clip-path="url(#cp-top)"></circle>
      <circle cx="0" cy="0" r="62" fill="#60a5fa" clip-path="url(#cp-bot)"></circle>
      <text x="0" y="2">A</text>
    </g>
    <g transform="translate(700 584)">
      <circle cx="0" cy="0" r="62" fill="#ffd93d" clip-path="url(#cp-lft)"></circle>
      <circle cx="0" cy="0" r="62" fill="#c084fc" clip-path="url(#cp-rgt)"></circle>
      <text x="0" y="2">L</text>
    </g>
    <g transform="translate(826 584)">
      <circle cx="0" cy="0" r="62" fill="#4ade80" clip-path="url(#cp-lft)"></circle>
      <circle cx="0" cy="0" r="62" fill="#e0e0e0" clip-path="url(#cp-rgt)"></circle>
      <text x="0" y="2">K</text>
    </g>
  </g>
</svg>