<svg xmlns="http://www.w3.org/2000/svg" viewBox="0 0 1024 1024" width="1024" height="1024" role="img" aria-label="TERMINAL TALK">
  <title>Terminal Talk — lettered dots · 1024×1024</title>
  <rect x="0" y="0" width="1024" height="1024" rx="224" ry="224" fill="#14161d"></rect>
  <defs>
    <clipPath id="cp-top"><rect x="-100" y="-100" width="200" height="100"></rect></clipPath>
    <clipPath id="cp-bot"><rect x="-100" y="0" width="200" height="100"></rect></clipPath>
    <clipPath id="cp-lft"><rect x="-100" y="-100" width="100" height="200"></rect></clipPath>
    <clipPath id="cp-rgt"><rect x="0" y="-100" width="100" height="200"></rect></clipPath>
  </defs>
  <g font-family="&#39;Segoe UI&#39;, &#39;Inter&#39;, &#39;Helvetica Neue&#39;, system-ui, sans-serif" font-weight="800" font-size="54" text-anchor="middle" dominant-baseline="central" fill="rgba(0,0,0,0.78)">
    <circle cx="26.00000000000005" cy="512" r="37.800000000000004" fill="#ff5e5e"></circle><text x="26.00000000000005" y="513">T</text>
    <circle cx="107.00000000000006" cy="512" r="37.800000000000004" fill="#ffa726"></circle><text x="107.00000000000006" y="513">E</text>
    <circle cx="188.00000000000006" cy="512" r="37.800000000000004" fill="#ffd93d"></circle><text x="188.00000000000006" y="513">R</text>
    <circle cx="269.00000000000006" cy="512" r="37.800000000000004" fill="#4ade80"></circle><text x="269.00000000000006" y="513">M</text>
    <circle cx="350.00000000000006" cy="512" r="37.800000000000004" fill="#60a5fa"></circle><text x="350.00000000000006" y="513">I</text>
    <circle cx="431.00000000000006" cy="512" r="37.800000000000004" fill="#c084fc"></circle><text x="431.00000000000006" y="513">N</text>
    <circle cx="512" cy="512" r="37.800000000000004" fill="#c97b50"></circle><text x="512" y="513">A</text>
    <circle cx="593" cy="512" r="37.800000000000004" fill="#e0e0e0"></circle><text x="593" y="513">L</text>
    <g transform="translate(755 512)">
      <circle cx="0" cy="0" r="37.800000000000004" fill="#ff5e5e" clip-path="url(#cp-top)"></circle>
      <circle cx="0" cy="0" r="37.800000000000004" fill="#4ade80" clip-path="url(#cp-bot)"></circle>
      <text x="0" y="1">T</text>
    </g>
    <g transform="translate(836 512)">
      <circle cx="0" cy="0" r="37.800000000000004" fill="#ffa726" clip-path="url(#cp-top)"></circle>
      <circle cx="0" cy="0" r="37.800000000000004" fill="#60a5fa" clip-path="url(#cp-bot)"></circle>
      <text x="0" y="1">A</text>
    </g>
    <g transform="translate(917 512)">
      <circle cx="0" cy="0" r="37.800000000000004" fill="#ffd93d" clip-path="url(#cp-lft)"></circle>
      <circle cx="0" cy="0" r="37.800000000000004" fill="#c084fc" clip-path="url(#cp-rgt)"></circle>
      <text x="0" y="1">L</text>
    </g>
    <g transform="translate(998 512)">
      <circle cx="0" cy="0" r="37.800000000000004" fill="#4ade80" clip-path="url(#cp-lft)"></circle>
      <circle cx="0" cy="0" r="37.800000000000004" fill="#e0e0e0" clip-path="url(#cp-rgt)"></circle>
      <text x="0" y="1">K</text>
    </g>
  </g>
</svg>