<svg xmlns="http://www.w3.org/2000/svg" viewBox="0 0 512 512" width="512" height="512" role="img" aria-label="TERMINAL TALK">
  <title>Terminal Talk — lettered dots · 512×512</title>
  <rect x="0" y="0" width="512" height="512" rx="112" ry="112" fill="#14161d"></rect>
  <defs>
    <clipPath id="cp-top"><rect x="-100" y="-100" width="200" height="100"></rect></clipPath>
    <clipPath id="cp-bot"><rect x="-100" y="0" width="200" height="100"></rect></clipPath>
    <clipPath id="cp-lft"><rect x="-100" y="-100" width="100" height="200"></rect></clipPath>
    <clipPath id="cp-rgt"><rect x="0" y="-100" width="100" height="200"></rect></clipPath>
  </defs>
  <g font-family="&#39;Segoe UI&#39;, &#39;Inter&#39;, &#39;Helvetica Neue&#39;, system-ui, sans-serif" font-weight="800" font-size="27" text-anchor="middle" dominant-baseline="central" fill="rgba(0,0,0,0.78)">
    <circle cx="13.000000000000025" cy="256" r="18.900000000000002" fill="#ff5e5e"></circle><text x="13.000000000000025" y="257">T</text>
    <circle cx="53.50000000000003" cy="256" r="18.900000000000002" fill="#ffa726"></circle><text x="53.50000000000003" y="257">E</text>
    <circle cx="94.00000000000003" cy="256" r="18.900000000000002" fill="#ffd93d"></circle><text x="94.00000000000003" y="257">R</text>
    <circle cx="134.50000000000003" cy="256" r="18.900000000000002" fill="#4ade80"></circle><text x="134.50000000000003" y="257">M</text>
    <circle cx="175.00000000000003" cy="256" r="18.900000000000002" fill="#60a5fa"></circle><text x="175.00000000000003" y="257">I</text>
    <circle cx="215.50000000000003" cy="256" r="18.900000000000002" fill="#c084fc"></circle><text x="215.50000000000003" y="257">N</text>
    <circle cx="256" cy="256" r="18.900000000000002" fill="#c97b50"></circle><text x="256" y="257">A</text>
    <circle cx="296.5" cy="256" r="18.900000000000002" fill="#e0e0e0"></circle><text x="296.5" y="257">L</text>
    <g transform="translate(377.5 256)">
      <circle cx="0" cy="0" r="18.900000000000002" fill="#ff5e5e" clip-path="url(#cp-top)"></circle>
      <circle cx="0" cy="0" r="18.900000000000002" fill="#4ade80" clip-path="url(#cp-bot)"></circle>
      <text x="0" y="1">T</text>
    </g>
    <g transform="translate(418 256)">
      <circle cx="0" cy="0" r="18.900000000000002" fill="#ffa726" clip-path="url(#cp-top)"></circle>
      <circle cx="0" cy="0" r="18.900000000000002" fill="#60a5fa" clip-path="url(#cp-bot)"></circle>
      <text x="0" y="1">A</text>
    </g>
    <g transform="translate(458.5 256)">
      <circle cx="0" cy="0" r="18.900000000000002" fill="#ffd93d" clip-path="url(#cp-lft)"></circle>
      <circle cx="0" cy="0" r="18.900000000000002" fill="#c084fc" clip-path="url(#cp-rgt)"></circle>
      <text x="0" y="1">L</text>
    </g>
    <g transform="translate(499 256)">
      <circle cx="0" cy="0" r="18.900000000000002" fill="#4ade80" clip-path="url(#cp-lft)"></circle>
      <circle cx="0" cy="0" r="18.900000000000002" fill="#e0e0e0" clip-path="url(#cp-rgt)"></circle>
      <text x="0" y="1">K</text>
    </g>
  </g>
</svg>