<svg xmlns="http://www.w3.org/2000/svg" style="display:none">
  

  <symbol id="tt-back10" viewBox="0 0 24 24" fill="none" stroke="currentColor" stroke-width="2" stroke-linecap="round" stroke-linejoin="round">
    <path d="M3 12a9 9 0 1 0 3-6.7L3 8"></path>
    <path d="M3 3v5h5"></path>
    <text x="12" y="16" font-size="7" fill="currentColor" stroke="none" text-anchor="middle">10</text>
  </symbol>

  <symbol id="tt-fwd10" viewBox="0 0 24 24" fill="none" stroke="currentColor" stroke-width="2" stroke-linecap="round" stroke-linejoin="round">
    <path d="M21 12a9 9 0 1 1-3-6.7L21 8"></path>
    <path d="M21 3v5h-5"></path>
    <text x="12" y="16" font-size="7" fill="currentColor" stroke="none" text-anchor="middle">10</text>
  </symbol>

  <symbol id="tt-play" viewBox="0 0 24 24" fill="currentColor">
    <path d="M8 5v14l11-7z"></path>
  </symbol>

  <symbol id="tt-pause" viewBox="0 0 24 24" fill="currentColor">
    <path d="M6 5h4v14H6zM14 5h4v14h-4z"></path>
  </symbol>

  <symbol id="tt-clear" viewBox="0 0 24 24" fill="none" stroke="currentColor" stroke-width="2" stroke-linecap="round" stroke-linejoin="round">
    <path d="M3 6h18"></path>
    <path d="M8 6V4a2 2 0 0 1 2-2h4a2 2 0 0 1 2 2v2"></path>
    <path d="M19 6l-1 14a2 2 0 0 1-2 2H8a2 2 0 0 1-2-2L5 6"></path>
  </symbol>

  <symbol id="tt-settings" viewBox="0 0 24 24" fill="none" stroke="currentColor" stroke-width="2" stroke-linecap="round" stroke-linejoin="round">
    <circle cx="12" cy="12" r="3"></circle>
    <path d="M19.4 15a1.65 1.65 0 0 0 .33 1.82l.06.06a2 2 0 0 1-2.83 2.83l-.06-.06a1.65 1.65 0 0 0-1.82-.33 1.65 1.65 0 0 0-1 1.51V21a2 2 0 0 1-4 0v-.09a1.65 1.65 0 0 0-1-1.51 1.65 1.65 0 0 0-1.82.33l-.06.06a2 2 0 0 1-2.83-2.83l.06-.06a1.65 1.65 0 0 0 .33-1.82 1.65 1.65 0 0 0-1.51-1H3a2 2 0 0 1 0-4h.09a1.65 1.65 0 0 0 1.51-1 1.65 1.65 0 0 0-.33-1.82l-.06-.06a2 2 0 0 1 2.83-2.83l.06.06a1.65 1.65 0 0 0 1.82.33H9a1.65 1.65 0 0 0 1-1.51V3a2 2 0 0 1 4 0v.09a1.65 1.65 0 0 0 1 1.51 1.65 1.65 0 0 0 1.82-.33l.06-.06a2 2 0 0 1 2.83 2.83l-.06.06a1.65 1.65 0 0 0-.33 1.82V9a1.65 1.65 0 0 0 1.51 1H21a2 2 0 0 1 0 4h-.09a1.65 1.65 0 0 0-1.51 1z"></path>
  </symbol>

  <symbol id="tt-close" viewBox="0 0 24 24" fill="none" stroke="currentColor" stroke-width="2.5" stroke-linecap="round">
    <path d="M18 6L6 18M6 6l12 12"></path>
  </symbol>

  <symbol id="tt-chevron-right" viewBox="0 0 24 24" fill="none" stroke="currentColor" stroke-width="2.5">
    <path d="M9 6l6 6-6 6"></path>
  </symbol>

  <symbol id="tt-chevron-down" viewBox="0 0 24 24" fill="none" stroke="currentColor" stroke-width="2.5">
    <path d="M6 9l6 6 6-6"></path>
  </symbol>
</svg>